<?xml version="1.0" encoding="utf-8"?>
<!-- Generator: Adobe Illustrator 18.0.0, SVG Export Plug-In . SVG Version: 6.00 Build 0)  -->
<!DOCTYPE svg PUBLIC "-//W3C//DTD SVG 1.1//EN" "http://www.w3.org/Graphics/SVG/1.1/DTD/svg11.dtd">
<svg version="1.1" id="Layer_1" xmlns="http://www.w3.org/2000/svg" xmlns:xlink="http://www.w3.org/1999/xlink" x="0px" y="0px"
	 width="20.7px" height="20.7px" viewBox="0 0 20.7 20.7" enable-background="new 0 0 20.7 20.7" xml:space="preserve">
<path fill="#333333" d="M10.3,0C4.6,0,0,4.8,0,10.6c0,4.7,3,8.7,7.1,10.1c0.1,0,0.1,0,0.2,0c0.4,0,0.5-0.3,0.5-0.5
	c0-0.3,0-0.9,0-1.8c-0.4,0.1-0.7,0.1-1,0.1c-2,0-2.4-1.5-2.4-1.5c-0.5-1.2-1.2-1.6-1.2-1.6c-0.9-0.6,0-0.7,0.1-0.7c0,0,0,0,0,0
	c1,0.1,1.6,1.1,1.6,1.1C5.3,16.7,6,17,6.6,17c0.5,0,0.9-0.2,1.2-0.3c0.1-0.7,0.4-1.2,0.7-1.4c-2.3-0.3-4.7-1.2-4.7-5.2
	c0-1.2,0.4-2.1,1.1-2.8C4.7,6.9,4.3,5.9,4.9,4.4c0,0,0.1,0,0.2,0c0.4,0,1.2,0.1,2.6,1.1c0.8-0.2,1.7-0.4,2.6-0.4
	c0.9,0,1.8,0.1,2.6,0.4c1.4-1,2.2-1.1,2.6-1.1c0.2,0,0.2,0,0.2,0c0.6,1.5,0.2,2.5,0.1,2.8c0.7,0.7,1.1,1.7,1.1,2.8
	c0,4.1-2.4,5-4.7,5.2c0.4,0.3,0.7,1,0.7,2c0,1.4,0,2.6,0,2.9c0,0.2,0.1,0.5,0.5,0.5c0.1,0,0.1,0,0.2,0c4.1-1.4,7.1-5.4,7.1-10.1
	C20.7,4.8,16.1,0,10.3,0z"/>
</svg>
