<?xml version="1.0" encoding="utf-8"?>
<!-- Generator: Adobe Illustrator 18.0.0, SVG Export Plug-In . SVG Version: 6.00 Build 0)  -->
<!DOCTYPE svg PUBLIC "-//W3C//DTD SVG 1.1//EN" "http://www.w3.org/Graphics/SVG/1.1/DTD/svg11.dtd">
<svg version="1.1" id="Layer_1" xmlns="http://www.w3.org/2000/svg" xmlns:xlink="http://www.w3.org/1999/xlink" x="0px" y="0px"
	 width="32.1px" height="42.8px" viewBox="0 0 32.1 42.8" enable-background="new 0 0 32.1 42.8" xml:space="preserve">
<path fill="#FFFFFF" d="M31.9,11.7c-0.1-0.2-0.2-0.5-0.4-0.7L22.1,0.8c-0.2-0.2-0.5-0.4-0.7-0.5C21.1,0.1,20.7,0,20.3,0H2.5
	C1.1,0,0,1.2,0,2.7V40c0,1.5,1.1,2.8,2.5,2.8h27.1c1.4,0,2.5-1.3,2.5-2.8V12.8C32.1,12.4,32,12,31.9,11.7z M13.5,25.2
	c0,3.8-1.9,5.1-4.7,5.1c-0.7,0-1.6-0.1-2.1-0.3L7,27.6c0.4,0.1,0.9,0.2,1.5,0.2c1.2,0,1.9-0.6,1.9-2.6v-8.2h3.1V25.2z M18.9,30.3
	c-1.5,0-2.8-0.4-3.5-0.8L16,27v0c0.8,0.4,1.9,0.8,3.1,0.8c1.3,0,2-0.6,2-1.5c0-0.8-0.6-1.3-2.1-1.8c-2.1-0.8-3.6-2-3.6-3.9
	c0-2.3,1.9-4,4.9-4c1.5,0,2.5,0.3,3.3,0.6l-0.7,2.5c-0.5-0.3-1.3-0.7-2.6-0.7c-1.3,0-1.9,0.6-1.9,1.3c0,0.8,0.7,1.2,2.4,1.9
	c2.3,0.9,3.3,2.1,3.3,4C24.1,28.4,22.4,30.3,18.9,30.3z M21.5,12.6c-0.6,0-1.2-0.6-1.2-1.3V4l7.9,8.6H21.5z"/>
</svg>
